<?xml version="1.0" encoding="UTF-8" standalone="no"?>
<svg width="154px" height="157px" viewBox="0 0 154 157" version="1.1" xmlns="http://www.w3.org/2000/svg" xmlns:xlink="http://www.w3.org/1999/xlink">
    <!-- Generator: Sketch 41 (35326) - http://www.bohemiancoding.com/sketch -->
    <title>Artboard</title>
    <desc>Created with Sketch.</desc>
    <defs>
        <polygon id="path-1" points="76.8383 152 0 152 0 0.788 153.6766 0.788 153.6766 152"></polygon>
        <polygon id="path-3" points="76.8383 0.788 0 0.788 0 152 153.6766 152 153.6766 0.788 76.8383 0.788"></polygon>
    </defs>
    <g id="Page-1" stroke="none" stroke-width="1" fill="none" fill-rule="evenodd">
        <g id="Artboard">
            <g id="Page-1">
                <g id="Group-3" transform="translate(0.000000, 4.212000)">
                    <mask id="mask-2" fill="white">
                        <use xlink:href="#path-1"></use>
                    </mask>
                    <g id="Clip-2"></g>
                    <path d="M15.9996,152 C7.1636,152 -0.0004,144.837 -0.0004,136 L-0.0004,16.788 C-0.0004,7.952 7.1636,0.788 15.9996,0.788 L137.6766,0.788 C146.5136,0.788 153.6766,7.952 153.6766,16.788 L153.6766,136 C153.6766,144.837 146.5136,152 137.6766,152 L15.9996,152 Z" id="Fill-1" fill-opacity="0.2" fill="#020202" mask="url(#mask-2)"></path>
                </g>
                <g id="Group-6" transform="translate(0.000000, 0.212000)">
                    <mask id="mask-4" fill="white">
                        <use xlink:href="#path-3"></use>
                    </mask>
                    <g id="Clip-5"></g>
                    <path d="M137.6766,152 L15.9996,152 C7.1636,152 -0.0004,144.837 -0.0004,136 L-0.0004,16.788 C-0.0004,7.952 7.1636,0.788 15.9996,0.788 L137.6766,0.788 C146.5136,0.788 153.6766,7.952 153.6766,16.788 L153.6766,136 C153.6766,144.837 146.5136,152 137.6766,152" id="Fill-4" fill="#F3F3F3" mask="url(#mask-4)"></path>
                </g>
                <path d="M67.02,6.0178 C72.68,3.3578 79.49,3.5078 84.97,6.4878 C88.63,8.4978 92.01,12.0078 92.14,16.3878 C97.65,18.8478 102.75,22.5378 106.49,27.3878 C113.42,36.7278 113.63,49.2678 110.33,60.0278 C109.12,60.8878 107.67,61.6378 107.31,63.2178 C105.61,67.5778 103.23,71.6678 100.28,75.3178 C100.61,71.0778 101.64,66.8778 101.37,62.5978 C101.3,62.1078 101.17,61.1178 101.11,60.6178 C100.43,54.5078 96.19,49.1278 90.6,46.6978 C83.5,42.8778 74.94,43.5378 68,39.3278 C64.59,39.5078 61.74,42.0778 59.03,43.9878 C53.89,47.8978 51.02,53.8378 49.04,59.8178 C48.12,60.3678 47.18,60.8678 46.21,61.3178 C43.56,53.8478 40.71,46.2478 41.29,38.1178 C41.2,30.5278 46.29,22.5278 54.15,21.3178 C56.26,21.3178 57.39,19.2878 59.01,18.2378 C58.54,12.8678 62.23,8.0278 67.02,6.0178" id="Fill-7" fill="#4F3524"></path>
                <path d="M59.03,43.9878 C61.74,42.0778 64.59,39.5078 68,39.3278 C74.94,43.5378 83.5,42.8778 90.6,46.6978 C96.19,49.1278 100.43,54.5078 101.11,60.6178 C98.69,60.5178 96.04,60.9978 94.16,59.1278 C90.36,56.0978 84.89,57.5478 81.9,60.9878 C80.65,60.6178 79.46,60.0678 78.21,59.7278 C76.95,60.0778 75.76,60.6078 74.51,60.9978 C72.47,59.1478 70.13,57.1678 67.16,57.5078 C64.45,57.2578 62.35,59.1578 60.19,60.4478 C57.06,60.7078 53.92,60.4378 50.79,60.6278 C52.94,63.0178 56.1,62.6978 59.02,62.6278 C58.91,65.2578 58.5,68.0978 60.11,70.3978 C63.03,75.5878 71.52,75.5978 74.44,70.4078 C76.03,68.2178 75.41,65.4478 75.89,62.9578 C76.48,62.6778 77.64,62.1278 78.22,61.8478 C78.8,62.1178 79.96,62.6678 80.54,62.9378 C80.98,65.4478 80.4,68.2178 81.99,70.4178 C84.82,75.4078 92.87,75.6278 96.02,70.8478 C97.84,68.4878 97.63,65.4378 97.38,62.6578 C98.7,62.6078 100.04,62.5878 101.37,62.5978 C101.64,66.8778 100.61,71.0778 100.28,75.3178 C103.23,71.6678 105.61,67.5778 107.31,63.2178 C107.67,61.6378 109.12,60.8878 110.33,60.0278 C110.4,63.2178 111.58,66.6078 109.89,69.6578 C108.91,72.3878 106.57,77.0878 103.07,74.4878 C100.43,79.6478 97.02,84.4078 92.84,88.4378 C89.26,91.6178 85.18,94.5978 80.39,95.5278 C76.44,96.3078 72.73,94.2878 69.04,93.2078 C73.52,98.4578 78.35,104.0078 84.96,106.5578 C82.63,107.8878 80.61,109.6878 78.21,110.8778 C72.75,107.2678 66.96,103.9878 61.93,99.7678 C63.93,96.3878 63.04,92.3778 63.63,88.6878 C59.53,84.4778 55.88,79.7978 53.3,74.4878 C51.04,76.7178 48.37,74.2278 47.52,71.9478 C45.74,68.7778 44.31,64.7778 46.21,61.3178 C47.18,60.8678 48.12,60.3678 49.04,59.8178 C51.02,53.8378 53.89,47.8978 59.03,43.9878" id="Fill-9" fill="#8E6042"></path>
                <path d="M60.19,60.4478 C62.35,59.1578 64.45,57.2578 67.16,57.5078 C70.13,57.1678 72.47,59.1478 74.51,60.9978 C75.76,60.6078 76.95,60.0778 78.21,59.7278 C79.46,60.0678 80.65,60.6178 81.9,60.9878 C84.89,57.5478 90.36,56.0978 94.16,59.1278 C96.04,60.9978 98.69,60.5178 101.11,60.6178 C101.17,61.1178 101.3,62.1078 101.37,62.5978 C100.04,62.5878 98.7,62.6078 97.38,62.6578 C97.63,65.4378 97.84,68.4878 96.02,70.8478 C92.87,75.6278 84.82,75.4078 81.99,70.4178 C80.4,68.2178 80.98,65.4478 80.54,62.9378 C79.96,62.6678 78.8,62.1178 78.22,61.8478 C77.64,62.1278 76.48,62.6778 75.89,62.9578 C75.41,65.4478 76.03,68.2178 74.44,70.4078 C71.52,75.5978 63.03,75.5878 60.11,70.3978 C58.5,68.0978 58.91,65.2578 59.02,62.6278 C56.1,62.6978 52.94,63.0178 50.79,60.6278 C53.92,60.4378 57.06,60.7078 60.19,60.4478" id="Fill-11" fill="#FD530C"></path>
                <path d="M65.62,59.6278 C69.63,58.4478 74.06,62.1078 73.7,66.2178 C73.7,69.2378 71.01,71.5978 68.26,72.3478 C65.26,72.8078 62.4,70.7278 61.19,68.0878 C59.69,64.6778 62.29,60.6078 65.62,59.6278" id="Fill-13" fill="#8E6042"></path>
                <path d="M87.49,59.6278 C91.92,58.2978 96.47,62.7878 95.55,67.2078 C94.82,69.6678 92.74,71.6278 90.27,72.3078 C85.53,73.2178 80.94,67.6378 83.25,63.2278 C84.32,61.7478 85.6,60.0178 87.49,59.6278" id="Fill-15" fill="#8E6042"></path>
                <path d="M141.3285,60.3478 C133.6285,52.7378 126.0685,44.9978 118.4085,37.3378 C114.7785,33.7978 111.5585,29.6278 106.8785,27.3878 C113.8085,36.7278 114.0185,49.2678 110.7185,60.0278 C110.7885,63.2178 111.9685,66.6078 110.2785,69.6578 C109.2985,72.3878 106.9585,77.0878 103.4585,74.4878 C100.8185,79.6478 97.4085,84.4078 93.2285,88.4378 C93.3785,92.3878 92.9985,96.6478 94.9385,100.2278 C96.8385,101.7278 98.6185,103.3578 100.3585,105.0378 C107.0185,107.1478 114.6185,105.0478 120.7685,108.9678 C127.3385,112.3778 131.3985,119.1578 132.8385,126.2578 C132.9585,132.2178 133.0485,138.1978 132.8585,144.1578 C132.6485,147.6678 129.1185,150.2878 125.6985,149.9278 C94.6585,149.9478 63.6185,149.9578 32.5785,149.9678 C30.5885,149.9778 28.6085,149.6978 26.6685,149.2778 C27.3115,150.2628 27.9555,151.2368 28.6085,152.2118 L30.4015,152.2118 C38.7825,151.8528 47.1805,152.1608 55.5785,152.0578 C63.4295,152.1338 71.2815,152.1798 79.1335,152.2118 L138.0655,152.2118 C146.4445,152.2118 153.3075,145.7678 153.9965,137.5678 C153.9735,118.9478 153.6665,75.6178 153.6765,72.5678 C149.1065,68.8578 145.4885,64.4878 141.3285,60.3478" id="Fill-17" fill="#E7E7E7"></path>
                <path d="M80.39,95.5278 C85.18,94.5978 89.26,91.6178 92.84,88.4378 C92.99,92.3878 92.61,96.6478 94.55,100.2278 C91.25,102.1378 88.19,104.4978 84.96,106.5578 C78.35,104.0078 73.52,98.4578 69.04,93.2078 C72.73,94.2878 76.44,96.3078 80.39,95.5278" id="Fill-19" fill="#754F36"></path>
                <path d="M56.26,104.8178 C57.99,102.9678 59.8,101.1678 61.93,99.7678 C66.96,103.9878 72.75,107.2678 78.21,110.8778 C80.61,109.6878 82.63,107.8878 84.96,106.5578 C88.19,104.4978 91.25,102.1378 94.55,100.2278 C96.45,101.7278 98.23,103.3578 99.97,105.0378 C95.69,109.9078 92.65,115.6878 88.59,120.7178 C87.76,122.1178 85.51,122.1878 84.67,120.7578 C82.2,117.8178 80.63,114.2478 78.2,111.2778 C75.79,114.2578 74.23,117.8278 71.75,120.7578 C70.86,122.1978 68.59,122.1078 67.78,120.6578 C63.69,115.5578 60.62,109.7078 56.26,104.8178" id="Fill-21" fill="#E1D9DC"></path>
                <path d="M42.36,106.4078 C47,105.9178 51.75,106.2478 56.26,104.8178 C60.62,109.7078 63.69,115.5578 67.78,120.6578 C68.59,122.1078 70.86,122.1978 71.75,120.7578 C74.23,117.8278 75.79,114.2578 78.2,111.2778 C80.63,114.2478 82.2,117.8178 84.67,120.7578 C85.51,122.1878 87.76,122.1178 88.59,120.7178 C92.65,115.6878 95.69,109.9078 99.97,105.0378 C106.63,107.1478 114.23,105.0478 120.38,108.9678 C126.95,112.3778 131.01,119.1578 132.45,126.2578 C132.57,132.2178 132.66,138.1978 132.47,144.1578 C132.26,147.6678 128.73,150.2878 125.31,149.9278 C94.27,149.9478 63.23,149.9578 32.19,149.9678 C30.2,149.9778 30.493,149.9678 28.145,149.9678 C25.304,149.9678 23.65,146.6528 23.65,142.1578 C23.65,134.8628 23.44,125.4968 25.5,120.3878 C28.36,113.3478 34.86,107.8178 42.36,106.4078" id="Fill-23" fill="#C6B5BC"></path>
                <path d="M76.55,122.4578 C78.14,120.4378 81.63,122.8978 80.19,125.0178 C78.59,127.4678 74.18,124.7878 76.55,122.4578" id="Fill-25" fill="#DFE3E8"></path>
                <path d="M75.77,134.1078 C76.08,131.1678 80.38,131.1278 80.59,134.1278 C80.03,136.6978 76.36,136.6278 75.77,134.1078" id="Fill-27" fill="#DFE3E8"></path>
                <path d="M76.14,143.2378 C76.9,141.4578 79.56,141.3278 80.25,143.2178 C81.38,144.5278 79.41,145.9878 78.22,146.2278 C76.97,145.8778 75.29,144.7478 76.14,143.2378" id="Fill-29" fill="#DEE2E8"></path>
            </g>
        </g>
    </g>
</svg>